<svg width="23" height="17" viewBox="0 0 23 17" fill="none" xmlns="http://www.w3.org/2000/svg">
<path d="M11.4991 9.4875C11.8014 9.48736 12.1008 9.42762 12.38 9.31168C12.6592 9.19576 12.9128 9.02591 13.1264 8.81187L21.7111 0.238625C21.3968 0.0819009 21.0504 0.000219134 20.6991 0H2.29911C1.94786 0.000219134 1.60145 0.0819009 1.28711 0.238625L9.87186 8.82337C10.305 9.25144 10.8902 9.49027 11.4991 9.4875Z" fill="#4E4E4E"/>
<path d="M13.9409 9.63701C13.6204 9.95864 13.2395 10.2138 12.8202 10.388C12.4008 10.5621 11.9512 10.6517 11.4971 10.6517C11.0431 10.6517 10.5935 10.5621 10.1741 10.388C9.75475 10.2138 9.37389 9.95864 9.05338 9.63701L0.414001 0.989014C0.144219 1.37292 -0.0003735 1.8308 7.24573e-07 2.30001V13.8C7.24573e-07 14.41 0.242321 14.995 0.673655 15.4264C1.10499 15.8577 1.69 16.1 2.3 16.1H20.7C21.31 16.1 21.895 15.8577 22.3263 15.4264C22.7577 14.995 23 14.41 23 13.8V2.30001C22.9994 1.83183 22.8549 1.37516 22.586 0.991889L13.9409 9.63701Z" fill="#4E4E4E"/>
</svg>
