<svg width="18" height="19" viewBox="0 0 18 19" fill="none" xmlns="http://www.w3.org/2000/svg">
<path d="M17.01 0H0.99C0.727436 0 0.475625 0.108103 0.289964 0.300528C0.104303 0.492953 0 0.753937 0 1.02607V17.6297C0 17.9018 0.104303 18.1628 0.289964 18.3552C0.475625 18.5477 0.727436 18.6558 0.99 18.6558H9.612V11.4267H7.272V8.62829H9.612V6.52952C9.56353 6.03678 9.61965 5.53901 9.77644 5.07114C9.93323 4.60326 10.1869 4.1766 10.5196 3.82108C10.8523 3.46557 11.2561 3.1898 11.7025 3.01313C12.149 2.83645 12.6273 2.76315 13.104 2.79836C13.8045 2.7939 14.5047 2.83127 15.201 2.9103V5.42883H13.77C12.636 5.42883 12.42 5.9885 12.42 6.80002V8.60031H15.12L14.769 11.3987H12.42V18.6558H17.01C17.14 18.6558 17.2687 18.6292 17.3889 18.5777C17.509 18.5261 17.6181 18.4505 17.71 18.3552C17.802 18.26 17.8749 18.1468 17.9246 18.0224C17.9744 17.8979 18 17.7644 18 17.6297V1.02607C18 0.891322 17.9744 0.757896 17.9246 0.633408C17.8749 0.50892 17.802 0.395807 17.71 0.300528C17.6181 0.205249 17.509 0.129669 17.3889 0.0781048C17.2687 0.0265401 17.14 0 17.01 0Z" fill="#4E4E4E"/>
</svg>
