<svg width="40" height="48" viewBox="0 0 40 48" fill="none" xmlns="http://www.w3.org/2000/svg">
<path d="M8.00781 20.8682H28.0421V25.2782H8.00781V20.8682Z" fill="white"/>
<path d="M7.97266 12.3623H17.9556V16.7385H7.97266V12.3623Z" fill="white"/>
<path d="M8.00781 29.4084H28.0421V33.7846H8.00781V29.4084Z" fill="white"/>
<path d="M7.93945 37.9351H27.9737V42.3112H7.93945V37.9351Z" fill="white"/>
<path d="M34.072 44.9914H34.0651C34.0651 45.5455 33.6137 45.9965 33.0601 45.9965H3.00868C2.45465 45.9965 2.00365 45.5451 2.00365 44.9914V6.91954C2.00365 6.36551 2.45504 5.91451 3.00868 5.91451H17.6754C17.9009 5.21701 18.1882 4.54698 18.5232 3.91089H3.00865C1.34692 3.91089 0 5.2578 0 6.91954V44.9914C0 46.6532 1.34692 48.0001 3.00865 48.0001L33.0669 47.9997C34.7286 47.9997 36.0755 46.6528 36.0755 44.9911V21.4696C35.4395 21.8046 34.7694 22.092 34.0719 22.3175L34.072 44.9914Z" fill="white"/>
<path d="M29.9839 0C24.4524 0 19.9668 4.48568 19.9668 10.0171C19.9668 15.5486 24.4525 20.0342 29.9839 20.0342C35.5154 20.0342 40.001 15.5486 40.001 10.0171C40.001 4.48568 35.5222 0 29.9839 0ZM31.2423 14.865L31.0031 14.9264V16.041C31.0031 16.3077 30.7845 16.5194 30.5246 16.5194H29.3693C29.1025 16.5194 28.8908 16.3073 28.8908 16.041V15.0222L28.6035 14.9947C27.7213 14.892 26.8872 14.6528 26.3266 14.3315C26.108 14.2083 26.026 13.9484 26.1213 13.7161L26.5659 12.7316C26.6204 12.6084 26.7231 12.5195 26.8463 12.4718C26.894 12.4581 26.949 12.4443 26.9967 12.4443C27.0787 12.4443 27.1539 12.4649 27.2222 12.4989C27.8922 12.8545 28.8019 13.0731 29.6359 13.0731C30.6204 13.0731 31.3385 12.6698 31.3385 12.1158C31.3385 11.7602 31.1332 11.3225 29.5947 10.8235C27.933 10.3038 26.2374 9.538 26.2374 7.82859C26.2374 6.52935 27.181 5.51748 28.7671 5.11415L29.0063 5.05272V3.97941C29.0063 3.71956 29.225 3.50093 29.4848 3.50093H30.6199C30.8867 3.50093 31.0984 3.71308 31.0984 3.97941V4.94362L31.3789 4.97796C32.0558 5.06 32.6575 5.22407 33.2046 5.48392C33.321 5.53848 33.4099 5.63426 33.4507 5.7575C33.4984 5.87388 33.4919 6.01047 33.437 6.11998L32.9787 7.09106C32.8967 7.25514 32.7257 7.36465 32.5411 7.36465C32.4728 7.36465 32.4045 7.35091 32.3427 7.31695C32.042 7.18036 31.3445 6.85869 30.2299 6.85869C29.2181 6.85869 28.7667 7.24827 28.7667 7.63823C28.7667 8.07589 29.2383 8.36969 30.7085 8.85543C32.2813 9.36825 33.8811 10.1409 33.8811 12.0006C33.8952 13.0259 33.1977 14.3728 31.2422 14.865L31.2423 14.865Z" fill="white"/>
</svg>
