<svg width="23" height="26" viewBox="0 0 23 26" fill="none" xmlns="http://www.w3.org/2000/svg">
<path d="M21.3631 11.3652L21.328 11.3053L21.2857 11.3298C21.0851 11.2488 20.8668 11.2031 20.638 11.2031H17.8993V12.611H19.1842L11.5916 17.2291C11.4929 17.2925 11.2854 17.3524 11.0706 17.3487C10.8523 17.3521 10.6343 17.2888 10.5356 17.222L10.4862 17.1903L3.15769 12.611H4.21715V11.2032H1.76006C1.53122 11.2032 1.31293 11.2525 1.11231 11.3299L1.0772 11.3088L1.04896 11.3544C0.432911 11.6289 0.00345715 12.2415 0 12.9594V23.7586C0.00368306 24.7299 0.788419 25.5148 1.76 25.5186H20.6379C21.6095 25.5151 22.3942 24.7302 22.3979 23.7586V12.9632C22.3945 12.2522 21.9722 11.6432 21.363 11.365L21.3631 11.3652ZM20.8845 24.0054C20.8175 24.0724 20.733 24.1075 20.638 24.111H1.7563C1.66128 24.111 1.57681 24.0724 1.50978 24.0054C1.44299 23.9384 1.40764 23.8539 1.4042 23.7589V13.1778L9.78873 18.4154C10.1865 18.6619 10.63 18.7533 11.0702 18.7567C11.4996 18.7533 11.9325 18.6651 12.3232 18.4294L20.9862 13.1567V23.7585C20.9862 23.8535 20.9511 23.938 20.8841 24.005L20.8845 24.0054Z" fill="#C94F24"/>
<path d="M11.8339 13.375V3.15693C13.02 4.33958 15.3187 6.63448 15.9136 7.22939C16.7303 8.04598 18.3567 7.22939 18.3567 7.22939L11.1162 0L3.90723 7.20865C3.90723 7.20865 5.53339 8.02159 6.35027 7.20865C6.95207 6.60688 9.25764 4.30143 10.4264 3.12909V13.3717H11.8343L11.8339 13.375Z" fill="#C94F24"/>
</svg>
