<svg width="18" height="19" viewBox="0 0 18 19" fill="none" xmlns="http://www.w3.org/2000/svg">
<path d="M8.99758 6.33198C7.345 6.33198 5.99636 7.75557 5.99636 9.5C5.99636 11.2444 7.345 12.668 8.99758 12.668C10.6502 12.668 11.9988 11.2444 11.9988 9.5C11.9988 7.75557 10.6502 6.33198 8.99758 6.33198ZM17.999 9.5C17.999 8.18811 18.0103 6.88811 17.9405 5.5786C17.8707 4.05757 17.5419 2.70766 16.4883 1.59541C15.4323 0.480781 14.1557 0.136173 12.7148 0.0624986C11.472 -0.0111762 10.2404 0.000706907 8.99983 0.000706907C7.75702 0.000706907 6.52546 -0.0111762 5.28489 0.0624986C3.84395 0.136173 2.5651 0.483158 1.51141 1.59541C0.455469 2.71004 0.129004 4.05757 0.0592081 5.5786C-0.0105877 6.89049 0.000669689 8.19049 0.000669689 9.5C0.000669689 10.8095 -0.0105877 12.1119 0.0592081 13.4214C0.129004 14.9424 0.45772 16.2923 1.51141 17.4046C2.56736 18.5192 3.84395 18.8638 5.28489 18.9375C6.52771 19.0112 7.75927 18.9993 8.99983 18.9993C10.2426 18.9993 11.4742 19.0112 12.7148 18.9375C14.1557 18.8638 15.4346 18.5168 16.4883 17.4046C17.5442 16.29 17.8707 14.9424 17.9405 13.4214C18.0125 12.1119 17.999 10.8119 17.999 9.5ZM8.99758 14.3744C6.44215 14.3744 4.3798 12.1974 4.3798 9.5C4.3798 6.80255 6.44215 4.62558 8.99758 4.62558C11.553 4.62558 13.6154 6.80255 13.6154 9.5C13.6154 12.1974 11.553 14.3744 8.99758 14.3744ZM13.8045 5.56434C13.2078 5.56434 12.726 5.05575 12.726 4.42595C12.726 3.79615 13.2078 3.28755 13.8045 3.28755C14.4011 3.28755 14.8829 3.79615 14.8829 4.42595C14.8831 4.5755 14.8554 4.72361 14.8012 4.86181C14.7471 5.00001 14.6677 5.12558 14.5675 5.23133C14.4673 5.33708 14.3483 5.42093 14.2174 5.47807C14.0865 5.53521 13.9462 5.56453 13.8045 5.56434Z" fill="#4E4E4E"/>
</svg>
